<svg
                width="22"
                height="28"
                xmlns="http://www.w3.org/2000/svg"
                class="mx-2"
              >
                <path
                  d="M18.031 11.697c-.3.484-.66.96-1.075 1.425a2.284 2.284 0 0 1-1.593.762 2.313 2.313 0 0 1-2.431-2.456c.093-1.481-.388-3.222-1.432-5.178-.528-.981-1.16-1.819-1.912-2.513a7.5 7.5 0 0 1-.379 1.454 11.07 11.07 0 0 1-1.818 3.156 10.925 10.925 0 0 1-1.832 1.775 8.839 8.839 0 0 0-2.525 3.06 8.624 8.624 0 0 0-.909 3.874c0 2.34.922 4.54 2.594 6.2A8.86 8.86 0 0 0 11 25.831a8.86 8.86 0 0 0 6.281-2.575 8.673 8.673 0 0 0 2.594-6.2 8.66 8.66 0 0 0-.75-3.534 8.617 8.617 0 0 0-1.094-1.825z"
                  fill-opacity="0.85"
                  fill="#FF8100"
                ></path>
                <path
                  d="M21.066 12.653a10.86 10.86 0 0 0-2.591-3.6l-.91-.834a.253.253 0 0 0-.406.103l-.406 1.165c-.253.732-.719 1.479-1.378 2.213a.195.195 0 0 1-.128.062.173.173 0 0 1-.134-.046.184.184 0 0 1-.063-.15c.116-1.882-.447-4.004-1.678-6.313-1.019-1.919-2.434-3.416-4.203-4.46L7.879.035a.25.25 0 0 0-.376.228l.069 1.5c.047 1.025-.072 1.932-.353 2.685A8.911 8.911 0 0 1 5.75 6.994a9.239 9.239 0 0 1-1.484 1.44 11.019 11.019 0 0 0-3.135 3.797 10.867 10.867 0 0 0-.265 9.072 10.98 10.98 0 0 0 5.856 5.8c1.356.569 2.794.856 4.278.856a11.05 11.05 0 0 0 4.278-.853 10.894 10.894 0 0 0 3.497-2.334A10.818 10.818 0 0 0 22 17.056a10.77 10.77 0 0 0-.934-4.403zM17.28 23.256A8.86 8.86 0 0 1 11 25.831a8.86 8.86 0 0 1-6.281-2.575 8.678 8.678 0 0 1-2.594-6.2c0-1.36.306-2.662.91-3.875a8.839 8.839 0 0 1 2.524-3.06 10.925 10.925 0 0 0 1.832-1.774A11.07 11.07 0 0 0 9.209 5.19a7.5 7.5 0 0 0 .379-1.454c.753.694 1.384 1.532 1.912 2.513 1.044 1.956 1.525 3.697 1.431 5.178a2.313 2.313 0 0 0 2.432 2.456 2.285 2.285 0 0 0 1.593-.762c.416-.466.775-.94 1.075-1.425.438.56.803 1.169 1.094 1.825a8.66 8.66 0 0 1 .75 3.534c0 2.34-.922 4.544-2.594 6.2z"
                  fill="red"
                ></path>
              </svg>